<svg version="1.1" xmlns="http://www.w3.org/2000/svg" viewBox="0 0 142.55598885832478 170.40962268976205" width="285.11197771664956" height="340.8192453795241" filter="invert(93%) hue-rotate(180deg)">
  <!-- svg-source:excalidraw -->
  
  <defs>
    <style class="style-fonts">
      @font-face {
        font-family: "Virgil";
        src: url("https://excalidraw.com/Virgil.woff2");
      }
      @font-face {
        font-family: "Cascadia";
        src: url("https://excalidraw.com/Cascadia.woff2");
      }
    </style>
    
  </defs>
  <g transform="translate(63.85035874077903 26.712180298862222) rotate(0 7.427635688383361 58.4926310460188)" stroke="none"><path fill="#000" d="M 7.77,0 Q 7.77,0 7.44,8.54 7.10,17.08 6.85,27.12 6.60,37.15 5.33,48.66 4.07,60.16 1.84,71.57 -0.38,82.99 -4.13,93.49 -7.89,104.00 -12.35,111.92 -16.80,119.85 -21.53,125.04 -26.26,130.23 -31.46,133.04 -36.67,135.85 -42.49,135.15 -48.31,134.44 -52.86,129.59 -57.42,124.73 -58.68,116.99 -59.94,109.24 -56.98,100.61 -54.01,91.98 -46.85,85.55 -39.69,79.12 -30.51,76.05 -21.33,72.99 -13.29,72.20 -5.25,71.41 1.95,73.32 9.16,75.24 14.58,79.24 19.99,83.25 23.98,87.82 27.97,92.40 31.00,97.33 34.02,102.27 36.34,106.26 38.66,110.25 44.05,115.27 49.43,120.29 51.70,116.64 53.97,112.98 55.64,105.51 57.31,98.03 58.34,88.61 59.37,79.19 58.96,69.12 58.56,59.04 55.99,49.35 53.42,39.65 48.40,30.53 43.37,21.41 37.29,14.51 31.21,7.62 25.15,3.30 19.09,-1.01 13.79,-3.63 8.50,-6.24 4.21,-6.89 -0.08,-7.54 -5.69,-6.65 -11.30,-5.76 -14.30,-2.23 -17.31,1.30 -19.26,5.25 -21.22,9.20 -18.11,5.96 -15.00,2.72 -13.28,2.73 -11.57,2.74 -9.67,3.28 -7.78,3.83 -6.15,4.95 -4.53,6.07 -3.35,7.65 -2.17,9.23 -1.55,11.11 -0.94,12.98 -0.96,14.96 -0.97,16.93 -1.62,18.79 -2.27,20.66 -3.48,22.22 -4.68,23.78 -6.33,24.87 -7.97,25.97 -9.88,26.48 -11.78,26.99 -13.75,26.86 -15.72,26.74 -17.55,25.99 -19.37,25.25 -20.87,23.95 -22.36,22.66 -23.36,20.96 -24.36,19.26 -24.77,17.33 -25.18,15.40 -24.95,13.44 -24.72,11.48 -23.87,9.70 -23.03,7.92 -21.66,6.50 -20.29,5.07 -18.54,4.17 -16.78,3.26 -14.83,2.96 -12.88,2.65 -10.94,2.99 -9.00,3.33 -7.26,4.27 -5.53,5.21 -4.18,6.65 -2.84,8.10 -2.02,9.89 -1.21,11.69 -1.02,13.66 -0.82,15.62 -1.26,17.54 -1.70,19.47 -2.74,21.15 -3.77,22.83 -5.28,24.09 -6.80,25.36 -8.64,26.07 -10.48,26.79 -12.45,26.87 -14.42,26.96 -14.42,26.96 -14.42,26.96 -19.06,25.93 -23.70,24.89 -28.01,23.10 -32.32,21.32 -36.51,15.63 -40.69,9.94 -39.54,3.49 -38.39,-2.95 -34.90,-7.58 -31.40,-12.20 -28.04,-15.15 -24.69,-18.11 -20.22,-20.40 -15.75,-22.69 -10.80,-23.33 -5.85,-23.97 -1.08,-22.99 3.69,-22.01 9.37,-20.05 15.05,-18.08 20.66,-14.55 26.28,-11.01 33.34,-5.88 40.39,-0.75 47.58,7.04 54.76,14.84 60.86,25.22 66.96,35.60 70.46,46.66 73.97,57.72 75.29,68.87 76.61,80.01 76.69,90.36 76.76,100.71 76.17,109.60 75.59,118.50 73.44,125.80 71.30,133.09 66.46,137.41 61.63,141.74 56.21,142.40 50.78,143.05 46.52,141.50 42.25,139.94 38.56,137.21 34.86,134.48 31.98,131.26 29.10,128.03 25.51,123.65 21.91,119.26 20.00,115.21 18.08,111.17 16.16,107.24 14.24,103.31 9.00,96.67 3.77,90.02 -0.35,88.17 -4.47,86.32 -10.56,86.72 -16.64,87.12 -23.11,89.37 -29.57,91.62 -34.10,95.18 -38.63,98.74 -40.79,107.38 -42.96,116.03 -38.91,118.45 -34.87,120.87 -30.71,117.56 -26.55,114.25 -22.66,107.20 -18.77,100.15 -15.44,90.48 -12.11,80.81 -10.22,69.89 -8.34,58.97 -7.47,48.06 -6.60,37.15 -6.85,27.11 -7.10,17.08 -7.44,8.54 -7.77,0 -7.66,-0.93 -7.55,-1.86 -7.22,-2.73 -6.88,-3.61 -6.35,-4.38 -5.82,-5.15 -5.12,-5.78 -4.41,-6.40 -3.58,-6.83 -2.75,-7.27 -1.84,-7.49 -0.93,-7.72 0.00,-7.72 0.93,-7.72 1.84,-7.49 2.75,-7.27 3.58,-6.83 4.41,-6.40 5.12,-5.77 5.82,-5.15 6.35,-4.38 6.88,-3.61 7.22,-2.73 7.55,-1.86 7.66,-0.93 7.77,0.00 7.77,0.00 L 7.77,0 Z"></path></g></svg>